<?xml version="1.0" encoding="utf-8"?>
<svg width="100%" height="100%" viewBox="0 0 1792 1792" xmlns="http://www.w3.org/2000/svg">
  <path d="M 1360.204 809.639 L 992.728 1191.207 C 986.454 1197.728 979.026 1200.99 970.441 1200.99 C 961.857 1200.99 954.428 1197.728 948.155 1191.207 L 580.679 809.639 C 574.406 803.117 571.269 795.307 571.269 786.21 C 571.269 777.113 574.406 769.303 580.679 762.78 L 662.889 677.816 C 669.163 671.294 676.592 668.032 685.177 668.032 C 693.761 668.032 701.189 671.294 707.463 677.816 L 970.441 951.246 L 1233.42 677.816 C 1239.693 671.294 1247.122 668.032 1255.706 668.032 C 1264.29 668.032 1271.72 671.294 1277.992 677.816 L 1360.204 762.78 C 1366.477 769.303 1369.614 777.113 1369.614 786.21 C 1369.614 795.307 1366.477 803.117 1360.204 809.639 Z" style="stroke: rgb(80, 35, 17); fill: rgb(12, 11, 11);"/>
  <path d="M 307.398 1283.785 L 307.398 1283.785 Z" style="fill: none; stroke: rgb(80, 35, 17);"/>
  <path d="M 335.097 840.602 Z" style="fill: none; stroke: rgb(80, 35, 17);"/>
  <path d="M -76.924 144.667 L -63.075 165.441 L -18.064 213.914" style="fill: none; stroke: rgb(80, 35, 17);"/>
  <path d="M -49.225 172.366" style="fill: none; stroke: rgb(80, 35, 17);"/>
  <path d="M -160.021 1131.441 L -208.494 1224.925" style="fill: none; stroke: rgb(80, 35, 17);"/>
  <path d="M -38.838 189.678 C -38.838 189.678 -38.838 189.678 -38.838 189.678 Z" style="fill: none; stroke: rgb(80, 35, 17);"/>
</svg>